<?xml version="1.0" encoding="UTF-8"?>
<svg width="33px" height="32px" viewBox="0 0 33 32" version="1.1" xmlns="http://www.w3.org/2000/svg" xmlns:xlink="http://www.w3.org/1999/xlink">
    <!-- Generator: Sketch 52.5 (67469) - http://www.bohemiancoding.com/sketch -->
    <title>adapt icon</title>
    <desc>Created with Sketch.</desc>
    <g id="Page-1" stroke="none" stroke-width="1" fill="none" fill-rule="evenodd">
        <g id="Large-Devices:-Desktops--Copy-8" transform="translate(-584.000000, -328.000000)">
            <g id="select3" transform="translate(556.000000, 307.000000)">
                <g id="adapt-icon" transform="translate(26.000000, 18.000000)">
                    <polygon id="Frames-24px" points="0 0 38 0 38 38 0 38"></polygon>
                    <g id="Outline" transform="translate(2.375000, 3.562500)" fill="#2CC6D0" fill-rule="nonzero">
                        <path d="M7.56835313,18.0039844 L11.6418938,5.74886068 L14.299875,10.1935742 L12.0747375,18.0039844 L15.4092375,18.0039844 L17.5734563,10.4042318 C17.6952557,9.97566963 17.6342986,9.51562442 17.4051281,9.13385417 L12.5957531,1.09348958 C12.2717342,0.557690299 11.6674058,0.258940715 11.0464201,0.327577234 C10.4254345,0.396213753 9.90045238,0.819784162 9.70050937,1.41349609 L4.05750937,18.3979622 C4.81810003,18.1478215 5.61214764,18.0149814 6.4125,18.0039844 L7.56835313,18.0039844 Z" id="Shape"></path>
                        <path d="M25.65,5.13940104 C22.9984312,5.13940104 20.840625,7.30386719 20.840625,9.96361979 L20.840625,18.0039844 L24.046875,18.0039844 L24.046875,14.7878385 L25.65,14.7878385 L25.65,11.578125 L24.046875,11.578125 L24.046875,9.96361979 C24.046875,9.07757161 24.7666781,8.35554688 25.65,8.35554688 C26.5333219,8.35554688 27.253125,9.07757161 27.253125,9.96361979 L27.253125,18.6841992 C28.5269809,19.2524724 29.6318143,20.1429459 30.459375,21.2683724 L30.459375,9.96361979 C30.459375,7.30225911 28.3015688,5.13940104 25.65,5.13940104 Z" id="Shape"></path>
                        <path d="M25.65,18.0104167 L6.4125,18.0104167 C2.87600625,18.0104167 0,20.8920833 0,24.4394922 C0.00176712107,27.991735 2.87118849,30.8714517 6.4125,30.875 L25.65,30.875 C29.1864938,30.875 32.0625,27.9901172 32.0625,24.4394922 C32.0589627,20.8890269 29.1895421,18.0121892 25.65,18.0104167 Z M25.65,27.6588542 L6.4125,27.6588542 C4.64085168,27.6588541 3.20464697,26.2182166 3.20464697,24.4411003 C3.20464697,22.6639839 4.64085168,21.2233464 6.4125,21.2233464 L25.65,21.2233464 C27.4216484,21.2233464 28.8578531,22.6639838 28.8578531,24.4411003 C28.8578531,26.2182167 27.4216484,27.6588542 25.65,27.6588542 Z" id="Shape"></path>
                        <ellipse id="Oval" cx="8.015625" cy="24.436276" rx="1.603125" ry="1.60807292"></ellipse>
                        <ellipse id="Oval" cx="24.046875" cy="24.436276" rx="1.603125" ry="1.60807292"></ellipse>
                    </g>
                </g>
            </g>
        </g>
    </g>
</svg>