<?xml version="1.0" encoding="UTF-8"?>
<svg width="30px" height="36px" viewBox="0 0 30 36" version="1.1" xmlns="http://www.w3.org/2000/svg" xmlns:xlink="http://www.w3.org/1999/xlink">
    <!-- Generator: Sketch 52.5 (67469) - http://www.bohemiancoding.com/sketch -->
    <title>undefined (5)</title>
    <desc>Created with Sketch.</desc>
    <g id="Page-1" stroke="none" stroke-width="1" fill="none" fill-rule="evenodd">
        <g id="Large-Devices:-Desktops--Copy-8" transform="translate(-685.000000, -325.000000)">
            <g id="undefined-(5)" transform="translate(685.000000, 325.000000)">
                <path d="M0.692307692,6.14892752e-16 C0.309972547,3.82277806e-05 3.82277806e-05,0.309972547 0,0.692307692 L0,35.3076923 C3.82277806e-05,35.6900275 0.309972547,35.9999618 0.692307692,36 L28.3846154,36 C28.7669505,35.9999618 29.0768848,35.6900275 29.0769231,35.3076923 L29.0769231,7.61538462 C29.0768879,7.43178541 29.0039317,7.25571736 28.8740991,7.12590148 L21.9510222,0.202824554 C21.8212062,0.0729916182 21.6451379,3.52106911e-05 21.4615385,0 L0.692307692,6.14892752e-16 Z M1.38461538,1.38461538 L20.7692308,1.38461538 L20.7692308,7.61538462 C20.769269,7.99771976 21.0792033,8.30765408 21.4615385,8.30769231 L27.6923077,8.30769231 L27.6923077,34.6153846 L1.38461538,34.6153846 L1.38461538,1.38461538 Z M22.1538462,2.36358166 L26.7133417,6.92307692 L22.1538462,6.92307692 L22.1538462,2.36358166 Z" id="rect6847-6" fill="#2CC6D0" fill-rule="nonzero"></path>
                <g id="check" transform="translate(6.923077, 13.846154)" stroke="#2CC6D0" stroke-linecap="round" stroke-width="2">
                    <polyline id="Shape" points="15.2307692 0 4.75961538 9.69230769 0 5.28671329"></polyline>
                </g>
            </g>
        </g>
    </g>
</svg>