<?xml version="1.0" encoding="UTF-8"?>
<svg width="30px" height="36px" viewBox="0 0 30 36" version="1.1" xmlns="http://www.w3.org/2000/svg" xmlns:xlink="http://www.w3.org/1999/xlink">
    <!-- Generator: Sketch 52.5 (67469) - http://www.bohemiancoding.com/sketch -->
    <title>idea icon</title>
    <desc>Created with Sketch.</desc>
    <g id="Page-1" stroke="none" stroke-width="1" fill="none" fill-rule="evenodd">
        <g id="Large-Devices:-Desktops--Copy-8" transform="translate(-385.000000, -325.000000)" fill="#2CC6D0" fill-rule="nonzero">
            <g id="select1" transform="translate(356.000000, 307.000000)">
                <g id="idea-icon" transform="translate(29.000000, 18.000000)">
                    <path d="M13.9285714,0 L13.9285714,2.24917637 L16.0714286,2.24917637 L16.0714286,0 L13.9285714,0 Z M5.15206479,3.81305686 L3.63699771,5.40329472 L5.15206479,6.99353281 L6.66713164,5.40329472 L5.15206479,3.81305686 Z M24.847935,3.81305686 L23.3328686,5.40329472 L24.847935,6.99353281 L26.3630014,5.40329472 L24.847935,3.81305686 Z M15.0585939,4.49835278 C9.20373643,4.49835278 4.361049,9.17953543 4.361049,15.0237953 C4.361049,19.0405994 6.16829529,21.7857681 7.82226557,23.8403903 C8.64925093,24.8678141 9.4400865,25.7513333 9.97767857,26.5376453 C10.5152706,27.3239574 10.7770648,27.9593857 10.7770648,28.5979269 L10.7770648,32.6569862 L10.7770648,36 L13.920201,36 L15.9960939,36 L19.3401236,36 L19.3401236,32.6877369 L19.3401236,28.5979269 C19.3401236,27.9593857 19.605525,27.3161775 20.143695,26.5244674 C20.6818629,25.7329822 21.4685743,24.8446071 22.2949221,23.8140344 C23.9476179,21.7524383 25.7561379,19.0111351 25.7561379,15.0237953 C25.7561379,9.17953543 20.91345,4.49835278 15.0585939,4.49835278 Z M15.0585939,6.74752914 C19.8361286,6.74752914 23.6132807,10.486082 23.6132807,15.0237953 C23.6132807,18.3174892 22.2102086,20.4279476 20.6542971,22.3687618 C19.8763414,23.3390556 19.0634968,24.241378 18.3984375,25.2197697 C17.7333782,26.1979342 17.1972656,27.3055501 17.1972656,28.5979269 L17.1972656,29.6214775 C17.1323513,29.609279 17.0665028,29.6033965 17.0005581,29.6039047 L16.0714286,29.6039047 L16.0714286,20.2425873 L17.1428571,20.2425873 L17.1428571,17.993411 L12.8571429,17.993411 L12.8571429,20.2425873 L13.9285714,20.2425873 L13.9285714,29.6039047 L12.9994419,29.6039047 C12.9729443,29.602872 12.9464194,29.602872 12.9199219,29.6039047 L12.9199219,28.5979269 C12.9199219,27.3055501 12.3843861,26.1976058 11.71875,25.2241623 C11.0531139,24.2507188 10.2360244,23.3562978 9.45870536,22.3907264 C7.90406721,20.4593587 6.50390614,18.3530261 6.50390614,15.0237953 C6.50390614,10.486082 10.2810564,6.74752914 15.0585939,6.74752914 Z M0,13.4950582 L0,15.7442346 L2.14285714,15.7442346 L2.14285714,13.4950582 L0,13.4950582 Z M27.8571429,13.4950582 L27.8571429,15.7442346 L30,15.7442346 L30,13.4950582 L27.8571429,13.4950582 Z M17.1972656,31.8355105 L17.1972656,32.6877369 L17.1972656,33.7508236 L15.9960939,33.7508236 L13.920201,33.7508236 L12.9199219,33.7508236 L12.9199219,32.6569862 L12.9199219,31.8486884 C12.921317,31.8486913 12.9227121,31.8486913 12.9241071,31.8486884 C12.9491618,31.8510805 12.9742889,31.8525456 12.9994419,31.8530811 L17.0005581,31.8530811 C17.0665027,31.8535901 17.1323512,31.8477083 17.1972656,31.8355105 Z" id="path4840"></path>
                </g>
            </g>
        </g>
    </g>
</svg>