<?xml version="1.0" encoding="UTF-8"?>
<svg width="32px" height="32px" viewBox="0 0 32 32" version="1.1" xmlns="http://www.w3.org/2000/svg" xmlns:xlink="http://www.w3.org/1999/xlink">
    <!-- Generator: Sketch 52.5 (67469) - http://www.bohemiancoding.com/sketch -->
    <title>Shape</title>
    <desc>Created with Sketch.</desc>
    <g id="Page-1" stroke="none" stroke-width="1" fill="none" fill-rule="evenodd">
        <g id="Large-Devices:-Desktops--Copy-8" transform="translate(-484.000000, -327.000000)" fill="#2CC6D0" fill-rule="nonzero">
            <path d="M515.574088,356.51709 L507.319203,348.262181 C509.176531,345.944137 510.186452,343.061261 510.18174,340.090909 C510.18174,332.861091 504.32103,327 497.09087,327 C489.861073,327 484,332.861091 484,340.090909 C484,347.320727 489.861073,353.181818 497.09087,353.181818 C500.18177,353.181818 503.022489,352.110545 505.262118,350.318909 L513.517003,358.573817 C513.789446,358.847024 514.159531,359.000398 514.545363,358.999999 C515.13364,359.000021 515.66401,358.645687 515.889185,358.10221 C516.11436,357.558733 515.989999,356.933129 515.574088,356.51709 Z M497.09087,350.272727 C491.467614,350.272727 486.909082,345.714181 486.909082,340.090909 C486.909082,334.467636 491.467614,329.909091 497.09087,329.909091 C502.71449,329.909091 507.272658,334.467636 507.272658,340.090909 C507.272658,345.714181 502.71449,350.272727 497.09087,350.272727 Z" id="Shape"></path>
        </g>
    </g>
</svg>