<?xml version="1.0" encoding="UTF-8"?>
<svg width="36px" height="36px" viewBox="0 0 36 36" version="1.1" xmlns="http://www.w3.org/2000/svg" xmlns:xlink="http://www.w3.org/1999/xlink">
    <!-- Generator: Sketch 52.5 (67469) - http://www.bohemiancoding.com/sketch -->
    <title>undefined (4)</title>
    <desc>Created with Sketch.</desc>
    <g id="Page-1" stroke="none" stroke-width="1" fill="none" fill-rule="evenodd" stroke-linecap="round" stroke-linejoin="round">
        <g id="Large-Devices:-Desktops--Copy-8" transform="translate(-782.000000, -325.000000)" stroke="#2CC6D0" stroke-width="2">
            <g id="select3-copy-2" transform="translate(756.000000, 308.000000)">
                <g id="undefined-(4)" transform="translate(27.000000, 18.000000)">
                    <path d="M34,16.9989538 C34,26.3881846 26.3876615,34 17.0005231,34 C7.61024615,34 0,26.3876615 0,16.9989538 C0,7.61024615 7.61024615,0 17.0005231,0 C26.3876615,0 34,7.61024615 34,16.9989538 Z" id="Shape"></path>
                    <path d="M13.3939394,11.8477122 C13.3939394,13.2709335 12.2407458,14.4242424 10.8186969,14.4242424 C9.39458775,14.4242424 8.24242424,13.2709335 8.24242424,11.8477122 C8.24242424,10.4260362 9.39458775,9.27272727 10.8186969,9.27272727 C12.2407458,9.27272727 13.3939394,10.4260362 13.3939394,11.8477122 Z" id="Shape"></path>
                    <circle id="Oval" cx="24.2121212" cy="11.8484848" r="2.57575758"></circle>
                    <path d="M24.7272727,20.6070884 C24.3033878,21.626702 23.6842995,22.5445597 22.9153321,23.3144091 C22.1437894,24.0811749 21.2244278,24.6983905 20.2015415,25.122373 C19.2152236,25.5309379 18.1346519,25.7575758 17.000515,25.7575758 C15.8653481,25.7575758 14.7863215,25.5309379 13.8000036,25.122373 C12.7781474,24.6989044 11.8572407,24.0816888 11.0867281,23.3144091 C10.3162155,22.5445597 9.69712724,21.6261881 9.27272727,20.6060606 C9.69712724,21.6256741 10.3162155,22.5440458 11.0867281,23.3144091 C11.8567256,24.0811749 12.7776324,24.6983905 13.8000036,25.122373 C14.7863215,25.5309379 15.8653481,25.7575758 17.000515,25.7575758 C18.1346519,25.7575758 19.2152236,25.5309379 20.2015415,25.122373 C21.2239128,24.6989044 22.1437894,24.0816888 22.9153321,23.3144091 C23.6842995,22.5445597 24.3033878,21.626702 24.7272727,20.6070884 Z" id="Shape"></path>
                </g>
            </g>
        </g>
    </g>
</svg>